<?xml version="1.0" standalone="no"?><!DOCTYPE svg PUBLIC "-//W3C//DTD SVG 1.1//EN" "http://www.w3.org/Graphics/SVG/1.1/DTD/svg11.dtd"><svg t="1610777792005" class="icon" viewBox="0 0 3208 1024" version="1.1" xmlns="http://www.w3.org/2000/svg" p-id="4258" xmlns:xlink="http://www.w3.org/1999/xlink" width="626.5625" height="200"><defs><style type="text/css"></style></defs><path d="M509.508267 16.247467l517.290666 811.4176-237.9776 141.994666a3213.687467 3213.687467 0 0 0-45.4656-87.2448 5150.3104 5150.3104 0 0 0-56.046933-100.693333L326.212267 802.133333 246.784 970.615467 18.875733 842.513067a68189.184 68189.184 0 0 1 283.4432-481.826134c95.163733-160.256 164.215467-275.080533 207.189334-344.439466z m-4.573867 390.826666l-101.9904 215.381334 202.581333-10.6496-100.590933-204.6976zM1425.066667 319.351467l8.2944 148.548266c-80.384 10.683733-226.030933 66.833067-226.030934 174.523734 0 107.690667 148.3776 113.732267 239.342934 102.6048l7.338666 141.585066c-155.716267 24.132267-403.797333-8.840533-420.317866-220.023466-16.554667-211.217067 180.974933-321.706667 391.406933-347.2384zM1521.083733 223.744c50.722133-0.9216 111.2064-2.628267 181.486934-5.12 70.2464-2.491733 140.526933-5.4272 210.8416-8.8064l3.208533 154.112-197.051733 4.642133v143.906134l180.053333-8.362667 2.7648 147.114667-182.818133-1.365334 0.9216 237.226667h-199.406934c2.1504-84.650667 3.242667-190.327467 3.242667-317.098667 0-126.702933-1.092267-242.107733-3.242667-346.248533zM2158.728533 330.9568c-4.573867 52.906667-6.144 117.589333-4.573866 194.048 2.286933 114.653867-2.4576 233.813333 94.173866 237.192533 105.198933 3.720533 97.826133-114.653867 97.826134-231.150933 0-77.687467-1.365333-148.411733-4.096-212.138667h176.366933c0 250.197333 49.152 581.632-287.573333 572.347734-297.130667-8.192-248.5248-286.1056-251.2896-560.298667h179.2zM2605.738667 312.388267l-31.266134 566.784 157.115734 5.12-1.8432-282.248534a14509.602133 14509.602133 0 0 0 216.405333 170.359467 6960.981333 6960.981333 0 0 0 172.270933 128.136533l33.0752-573.781333-156.672-3.6864 1.365334 284.535467-390.485334-295.2192z" fill="#FD4C5D" p-id="4259"></path></svg>