<?xml version="1.0" standalone="no"?><!DOCTYPE svg PUBLIC "-//W3C//DTD SVG 1.1//EN" "http://www.w3.org/Graphics/SVG/1.1/DTD/svg11.dtd"><svg t="1610543760168" class="icon" viewBox="0 0 1024 1024" version="1.1" xmlns="http://www.w3.org/2000/svg" p-id="15589" xmlns:xlink="http://www.w3.org/1999/xlink" width="200" height="200"><defs><style type="text/css"></style></defs><path d="M1024 385.024l0 189.44-169.984 0q-12.288 0-16.896 5.12t-4.608 15.36l0 26.624q0 8.192-6.656 14.336t-16.896 8.192-22.528-1.024-23.552-14.336q-29.696-28.672-60.928-65.536t-57.856-66.56q-6.144-7.168-5.12-19.456t9.216-21.504q27.648-32.768 58.368-64.512l67.584-66.56q5.12-5.12 14.848-6.656t19.456-0.512 16.896 5.12 7.168 9.216l0 15.36q0 10.24 4.608 24.064t23.04 13.824l163.84 0zM63.488 574.464l0-189.44 163.84 0q17.408 0 22.528-7.68t5.12-17.92l0-16.384q0-12.288 7.168-18.944t16.896-8.192 19.456 1.024 14.848 7.68l67.584 66.56q30.72 31.744 58.368 64.512 8.192 9.216 9.216 21.504t-6.144 19.456q-26.624 29.696-57.856 66.56t-60.928 65.536q-11.264 11.264-23.552 15.36t-22.016 2.048-16.384-9.728-6.656-20.992l0-26.624q0-10.24-4.608-12.288t-17.92-2.048l-168.96 0zM896 63.488q26.624 0 49.664 10.24t40.448 27.648 27.648 40.448 10.24 49.664l0 128-128 0 0-128-320.512 0 0 576.512 320.512 0 0-128 128 0 0 128q0 26.624-10.24 49.664t-27.648 40.448-40.448 27.648-49.664 10.24l-704.512 0q-26.624 0-49.664-10.24t-40.448-27.648-27.648-40.448-10.24-49.664l0-128 128 0 0 128 320.512 0 0-576.512-320.512 0 0 128-128 0 0-128q0-26.624 10.24-49.664t27.648-40.448 40.448-27.648 49.664-10.24l704.512 0z" p-id="15590"></path></svg>