<?xml version="1.0" standalone="no"?><!DOCTYPE svg PUBLIC "-//W3C//DTD SVG 1.1//EN" "http://www.w3.org/Graphics/SVG/1.1/DTD/svg11.dtd"><svg t="1616845202610" class="icon" viewBox="0 0 1024 1024" version="1.1" xmlns="http://www.w3.org/2000/svg" p-id="4145" xmlns:xlink="http://www.w3.org/1999/xlink" width="200" height="200"><defs><style type="text/css"></style></defs><path d="M42.666667 85.544405 42.666667 85.544405 42.666667 938.455595C42.666667 962.151595 61.852518 981.333333 85.544388 981.333333L938.455595 981.333333C962.151595 981.333333 981.333333 962.147499 981.333333 938.455595L981.333333 85.544405C981.333333 61.848405 962.147499 42.666667 938.455595 42.666667L85.544388 42.666667C61.848427 42.666667 42.666667 61.852501 42.666667 85.544405L42.666667 85.544405ZM277.333333 716.496768 202.011874 641.175339C193.850308 633.01376 180.069905 632.740864 171.738722 641.072043 163.651187 649.159595 163.453769 662.956971 171.841984 671.345195L247.163443 746.666667 171.841984 821.988139C163.680418 830.149675 163.407535 843.930112 171.738722 852.261291 179.826253 860.3488 193.623659 860.546219 202.011874 852.157995L277.333333 776.836565 352.654793 852.157995C360.816358 860.319573 374.596762 860.592469 382.927945 852.261291 391.015479 844.173739 391.212898 830.376363 382.824683 821.988139L307.503223 746.666667 382.824683 671.345195C390.986249 663.183659 391.259132 649.403221 382.927945 641.072043 374.840414 632.984533 361.043008 632.787115 352.654793 641.175339L277.333333 716.496768ZM256 256 149.479369 256C137.937173 256 128 265.551275 128 277.333333 128 288.770816 137.61664 298.666667 149.479369 298.666667L256 298.666667 256 405.187285C256 416.729472 265.551258 426.666667 277.333333 426.666667 288.770833 426.666667 298.666667 417.050027 298.666667 405.187285L298.666667 298.666667 405.187298 298.666667C416.729493 298.666667 426.666667 289.115392 426.666667 277.333333 426.666667 265.895851 417.050027 256 405.187298 256L298.666667 256 298.666667 149.479381C298.666667 137.937195 289.115409 128 277.333333 128 265.895834 128 256 137.61664 256 149.479381L256 256ZM0 85.544405C0 38.29952 38.273118 0 85.544388 0L938.455595 0C985.70048 0 1024 38.273109 1024 85.544405L1024 938.455595C1024 985.70048 985.726891 1024 938.455595 1024L85.544388 1024C38.299529 1024 0 985.726891 0 938.455595L0 85.544405ZM554.666667 277.333333C554.666667 265.551275 564.60384 256 576.146035 256L831.853952 256C843.716693 256 853.333333 265.895851 853.333333 277.333333 853.333333 289.115392 843.396139 298.666667 831.853952 298.666667L576.146035 298.666667C564.283307 298.666667 554.666667 288.770816 554.666667 277.333333ZM554.666667 661.333333C554.666667 649.551275 564.60384 640 576.146035 640L831.853952 640C843.716693 640 853.333333 649.895851 853.333333 661.333333 853.333333 673.115392 843.396139 682.666667 831.853952 682.666667L576.146035 682.666667C564.283307 682.666667 554.666667 672.770816 554.666667 661.333333ZM554.666667 832C554.666667 820.217941 564.60384 810.666667 576.146035 810.666667L831.853952 810.666667C843.716693 810.666667 853.333333 820.562517 853.333333 832 853.333333 843.782059 843.396139 853.333333 831.853952 853.333333L576.146035 853.333333C564.283307 853.333333 554.666667 843.437483 554.666667 832Z" p-id="4146"></path></svg>