<?xml version="1.0" standalone="no"?><!DOCTYPE svg PUBLIC "-//W3C//DTD SVG 1.1//EN" "http://www.w3.org/Graphics/SVG/1.1/DTD/svg11.dtd"><svg t="1610543690338" class="icon" viewBox="0 0 1024 1024" version="1.1" xmlns="http://www.w3.org/2000/svg" p-id="12189" xmlns:xlink="http://www.w3.org/1999/xlink" width="200" height="200"><defs><style type="text/css"></style></defs><path d="M806.552 328.13c-13.532-32.656-50.966-48.156-83.622-34.656L92.232 554.716c-34.062 14.124-60.124 39.406-75.716 69.842h265.742a170.318 170.318 0 0 0-4.468-8.156L771.9 411.752c32.652-13.53 48.184-50.966 34.652-83.622z" fill="#CCD1D9" p-id="12190"></path><path d="M277.788 616.402l21.124-8.718-49-118.276-157.682 65.31C16.046 586.28-20.14 673.652 11.42 749.836c31.562 76.186 118.934 112.372 195.12 80.81 76.186-31.56 112.372-118.902 80.81-195.088a149.792 149.792 0 0 0-9.562-19.156z m-128.34 118.59c-23.562 0-42.656-19.092-42.656-42.686 0-23.56 19.094-42.654 42.656-42.654 23.592 0 42.686 19.094 42.686 42.654 0 23.594-19.092 42.686-42.686 42.686z" fill="#DA4453" p-id="12191"></path><path d="M771.898 612.246l-494.11-204.68a149.5 149.5 0 0 0 9.562-19.124c0-0.032 0.032-0.032 0.032-0.062H11.39c14.624 35.342 42.718 65.092 80.842 80.904l630.7 261.208c32.654 13.532 70.09-1.968 83.622-34.624s-2.002-70.09-34.656-83.622z" fill="#E6E9ED" p-id="12192"></path><path d="M277.788 407.566a149.5 149.5 0 0 0 9.562-19.124c31.562-76.186-4.624-163.528-80.81-195.088-76.184-31.562-163.558 4.624-195.12 80.81-31.562 76.184 4.624 163.558 80.81 195.12l157.682 65.28 49-118.248-21.124-8.75z m-88.996-59.936c-9 21.75-33.968 32.094-55.716 23.094-21.782-9.032-32.092-33.968-23.094-55.748 9.032-21.75 33.968-32.094 55.75-23.062 21.746 9 32.09 33.936 23.06 55.716z" fill="#ED5564" p-id="12193"></path><path d="M363.442 533.344c-11.782 0-21.312-9.562-21.312-21.342 0-11.782 9.532-21.344 21.312-21.344 11.78 0 21.342 9.562 21.342 21.344 0.002 11.78-9.562 21.342-21.342 21.342zM1002.674 490.658h-85.344c-11.78 0-21.342 9.562-21.342 21.344 0 11.78 9.562 21.342 21.342 21.342h85.344c11.78 0 21.31-9.562 21.31-21.342 0-11.782-9.53-21.344-21.31-21.344zM853.334 490.658h-85.342c-11.782 0-21.312 9.562-21.312 21.344 0 11.78 9.532 21.342 21.312 21.342h85.342c11.782 0 21.344-9.562 21.344-21.342 0-11.782-9.562-21.344-21.344-21.344zM703.994 490.658h-85.31c-11.782 0-21.342 9.562-21.342 21.344 0 11.78 9.56 21.342 21.342 21.342h85.31c11.782 0 21.344-9.562 21.344-21.342 0-11.782-9.562-21.344-21.344-21.344z" fill="#434A54" p-id="12194"></path></svg>