<?xml version="1.0" standalone="no"?><!DOCTYPE svg PUBLIC "-//W3C//DTD SVG 1.1//EN" "http://www.w3.org/Graphics/SVG/1.1/DTD/svg11.dtd"><svg t="1679585745414" class="icon" viewBox="0 0 1024 1024" version="1.1" xmlns="http://www.w3.org/2000/svg" p-id="2362" xmlns:xlink="http://www.w3.org/1999/xlink" width="200" height="200"><path d="M813.1 542.8V441.7c0-166.8-134.5-302.6-299.8-302.6h-4.7c-165.3 0-299.8 135.7-299.8 302.6v101.1c-81.5 12.3-144.3 83.4-144.3 169.1 0 94.3 76 171 169.4 171 13.6 0 24.7-11.2 24.7-24.9 0-2.3-0.3-4.4-0.9-6.5 0.3-1.4 0.4-2.9 0.4-4.4V570.6c0.3-1.5 0.5-3.1 0.5-4.8 0-1.6-0.2-3.2-0.5-4.8V441.7c0-139.4 112.3-252.8 250.4-252.8h4.7c138.1 0 250.4 113.4 250.4 252.8V561c-0.3 1.5-0.5 3.1-0.5 4.8 0 1.6 0.2 3.2 0.5 4.8v274.1c0 2 0.2 3.9 0.7 5.8-0.7 2.4-1.1 4.9-1.1 7.5 0 13.8 11.1 24.9 24.7 24.9 93.4 0 169.4-76.7 169.4-171 0.1-85.7-62.6-156.8-144.2-169.1zM208.9 830.4C154.7 818.7 114 770 114 711.9s40.8-106.8 94.9-118.5v237z m604.2 0v-237c54.2 11.7 94.9 60.4 94.9 118.5s-40.7 106.8-94.9 118.5zM322.3 578.7c-13.6 0-24.7 11.2-24.7 24.9V847c0 13.8 11.1 24.9 24.7 24.9S347 860.7 347 847V603.6c0-13.7-11.1-24.9-24.7-24.9z m377.4 0c-13.6 0-24.7 11.2-24.7 24.9V847c0 13.8 11 24.9 24.7 24.9 13.6 0 24.7-11.2 24.7-24.9V603.6c0-13.7-11.1-24.9-24.7-24.9z" fill="#e98f36" p-id="2363"></path></svg>