<?xml version="1.0" standalone="no"?><!DOCTYPE svg PUBLIC "-//W3C//DTD SVG 1.1//EN" "http://www.w3.org/Graphics/SVG/1.1/DTD/svg11.dtd"><svg t="1626939170458" class="icon" viewBox="0 0 1024 1024" version="1.1" xmlns="http://www.w3.org/2000/svg" p-id="614" xmlns:xlink="http://www.w3.org/1999/xlink" width="200" height="200"><defs><style type="text/css">@font-face { font-family: feedback-iconfont; src: url("//at.alicdn.com/t/font_1031158_1uhr8ri0pk5.eot?#iefix") format("embedded-opentype"), url("//at.alicdn.com/t/font_1031158_1uhr8ri0pk5.woff2") format("woff2"), url("//at.alicdn.com/t/font_1031158_1uhr8ri0pk5.woff") format("woff"), url("//at.alicdn.com/t/font_1031158_1uhr8ri0pk5.ttf") format("truetype"), url("//at.alicdn.com/t/font_1031158_1uhr8ri0pk5.svg#iconfont") format("svg"); }
</style></defs><path d="M773.9392 301.8752m-200.0384 0a200.0384 200.0384 0 1 0 400.0768 0 200.0384 200.0384 0 1 0-400.0768 0Z" fill="#40ECCB" p-id="615"></path><path d="M924.4672 706.2528a24.32 24.32 0 0 1-24.2688 24.2688h-145.7664a24.3712 24.3712 0 0 0-24.2688 24.32 24.2688 24.2688 0 0 0 24.2688 24.2688h48.5888a24.32 24.32 0 0 1 24.2688 24.32 24.32 24.32 0 0 1-24.2688 24.2688h-64.512A388.7616 388.7616 0 0 1 122.88 390.4512h-48.5888a24.32 24.32 0 0 1 0-48.5888h97.28a24.2688 24.2688 0 0 0 6.8096-47.5648l0.768-0.9728H122.88a24.32 24.32 0 1 1 0-48.5888h101.632a388.7616 388.7616 0 0 1 619.52 437.248h56.32a24.32 24.32 0 0 1 24.1152 24.2688z" fill="#43CEED" p-id="616"></path><path d="M675.1744 490.7008a194.56 194.56 0 0 1-69.12-20.8384 18.8416 18.8416 0 0 0-27.4944 16.8448v135.2192c0 86.3744-66.56 156.3136-148.48 156.3136s-148.48-69.9392-148.48-156.2624S348.16 465.92 430.08 465.92h6.3488a18.688 18.688 0 0 1 17.5616 18.7904v49.6128a18.688 18.688 0 0 1-19.4048 18.6368h-3.7888c-36.608 0-66.56 31.232-66.56 69.7856s29.7472 69.7344 66.56 69.7344 66.56-31.232 66.56-69.7344V305.5616a18.7904 18.7904 0 0 1 18.5344-18.8416h46.4896a18.944 18.944 0 0 1 18.688 16.4864c6.8608 51.2 45.2096 91.5968 93.7472 99.1232a19.0464 19.0464 0 0 1 16.384 18.688v55.3984a14.4384 14.4384 0 0 1-16.0256 14.2848z" fill="#FFFFFF" p-id="617"></path></svg>