<?xml version="1.0" encoding="UTF-8"?>
<svg xmlns="http://www.w3.org/2000/svg" xmlns:xlink="http://www.w3.org/1999/xlink" width="22px" height="22px" viewBox="0 0 22 22" version="1.1">
<defs>
<radialGradient id="radial0" gradientUnits="userSpaceOnUse" cx="-122.3936" cy="442.72311" fx="-122.3936" fy="442.72311" r="29.5804" gradientTransform="matrix(0.34375,0,0,-0.34375,46.671212,156.932838)">
<stop offset="0" style="stop-color:rgb(100%,100%,100%);stop-opacity:1;"/>
<stop offset="1" style="stop-color:rgb(0%,47.058824%,3.137255%);stop-opacity:1;"/>
</radialGradient>
</defs>
<g id="surface1">
<path style=" stroke:none;fill-rule:nonzero;fill:rgb(4.313725%,28.235294%,9.803922%);fill-opacity:1;" d="M 2.3125 5.617188 L 0.632812 5.210938 L 0.632812 2.707031 L 2.3125 3.285156 Z M 2.3125 5.617188 "/>
<path style=" stroke:none;fill-rule:nonzero;fill:rgb(4.313725%,28.235294%,9.803922%);fill-opacity:1;" d="M 3.59375 15.191406 L 1.988281 15.507812 L 1.988281 6.195312 L 3.59375 6.535156 Z M 3.59375 15.191406 "/>
<path style=" stroke:none;fill-rule:nonzero;fill:rgb(6.27451%,36.078431%,50.196078%);fill-opacity:1;" d="M 21.308594 20.207031 L 12.148438 19.496094 L 16.816406 14.964844 L 16.816406 12.734375 L 10.140625 19.339844 L 2.144531 18.722656 L 14.96875 4.933594 L 12.859375 5.046875 L 3.59375 15.191406 L 3.59375 6.535156 L 4.472656 5.5 L 2.3125 5.617188 L 2.3125 3.285156 L 9.847656 2.703125 L 5.714844 7.441406 L 5.714844 9.457031 L 11.84375 2.550781 L 21.542969 1.796875 L 7.273438 16.671875 L 9.171875 16.773438 L 19.539062 6.171875 L 19.539062 16.191406 L 18.386719 17.273438 L 21.308594 17.433594 Z M 21.308594 20.207031 "/>
<path style=" stroke:none;fill-rule:nonzero;fill:rgb(4.313725%,28.235294%,9.803922%);fill-opacity:1;" d="M 3.59375 6.535156 L 1.988281 6.195312 L 2.917969 5.078125 L 4.472656 5.5 Z M 3.59375 6.535156 "/>
<path style=" stroke:none;fill-rule:nonzero;fill:rgb(3.137255%,25.098039%,6.27451%);fill-opacity:1;" d="M 4.238281 9.335938 L 4.238281 7.164062 L 5.714844 7.441406 L 5.714844 9.457031 Z M 4.238281 9.335938 "/>
<path style=" stroke:none;fill-rule:nonzero;fill:rgb(4.705882%,32.941176%,11.764706%);fill-opacity:1;" d="M 7.917969 17.238281 L 5.894531 17.121094 L 7.273438 16.671875 L 9.171875 16.773438 Z M 7.917969 17.238281 "/>
<path style=" stroke:none;fill-rule:nonzero;fill:rgb(10.196078%,36.078431%,20.392157%);fill-opacity:1;" d="M 4.238281 7.164062 L 8.640625 2.03125 L 9.847656 2.703125 L 5.714844 7.441406 Z M 4.238281 7.164062 "/>
<path style=" stroke:none;fill-rule:nonzero;fill:rgb(4.313725%,28.235294%,9.803922%);fill-opacity:1;" d="M 5.714844 9.457031 L 4.238281 9.335938 L 10.773438 1.847656 L 11.84375 2.550781 Z M 5.714844 9.457031 "/>
<path style=" stroke:none;fill-rule:nonzero;fill:rgb(10.196078%,36.078431%,20.392157%);fill-opacity:1;" d="M 1.988281 15.507812 L 11.867188 4.546875 L 12.859375 5.046875 L 3.59375 15.191406 Z M 1.988281 15.507812 "/>
<path style=" stroke:none;fill-rule:nonzero;fill:rgb(4.313725%,28.235294%,9.803922%);fill-opacity:1;" d="M 2.144531 18.722656 L 0.457031 19.300781 L 14.136719 4.414062 L 14.96875 4.933594 Z M 2.144531 18.722656 "/>
<path style=" stroke:none;fill-rule:nonzero;fill:rgb(10.196078%,36.078431%,20.392157%);fill-opacity:1;" d="M 8.953125 20.019531 L 16.128906 12.882812 L 16.816406 12.734375 L 10.140625 19.339844 Z M 8.953125 20.019531 "/>
<path style=" stroke:none;fill-rule:nonzero;fill:rgb(4.313725%,28.235294%,9.803922%);fill-opacity:1;" d="M 16.816406 14.964844 L 16.128906 15.308594 L 16.128906 12.882812 L 16.816406 12.734375 Z M 16.816406 14.964844 "/>
<path style=" stroke:none;fill-rule:nonzero;fill:rgb(4.313725%,28.235294%,9.803922%);fill-opacity:1;" d="M 12.148438 19.496094 L 11.101562 20.199219 L 16.128906 15.308594 L 16.816406 14.964844 Z M 12.148438 19.496094 "/>
<path style=" stroke:none;fill-rule:nonzero;fill:rgb(7.45098%,50.196078%,17.647059%);fill-opacity:1;" d="M 19.539062 16.191406 L 19.074219 16.652344 L 17.828125 17.824219 L 18.386719 17.273438 Z M 19.539062 16.191406 "/>
<path style=" stroke:none;fill-rule:nonzero;fill:rgb(4.313725%,28.235294%,9.803922%);fill-opacity:1;" d="M 9.171875 16.773438 L 7.917969 17.238281 L 19.074219 5.738281 L 19.539062 6.171875 Z M 9.171875 16.773438 "/>
<path style=" stroke:none;fill-rule:nonzero;fill:rgb(3.137255%,25.098039%,6.27451%);fill-opacity:1;" d="M 19.074219 16.652344 L 19.074219 5.738281 L 19.539062 6.171875 L 19.539062 16.191406 Z M 19.074219 16.652344 "/>
<path style=" stroke:none;fill-rule:nonzero;fill:rgb(3.137255%,25.098039%,6.27451%);fill-opacity:1;" d="M 20.996094 21.039062 L 20.996094 18.011719 L 21.308594 17.433594 L 21.308594 20.207031 Z M 20.996094 21.039062 "/>
<path style=" stroke:none;fill-rule:nonzero;fill:rgb(10.196078%,36.078431%,20.392157%);fill-opacity:1;" d="M 5.894531 17.121094 L 21.253906 0.960938 L 21.542969 1.796875 L 7.273438 16.671875 Z M 5.894531 17.121094 "/>
<path style=" stroke:none;fill-rule:nonzero;fill:url(#radial0);" d="M 20.996094 21.039062 L 11.101562 20.199219 L 16.128906 15.308594 L 16.128906 12.882812 L 8.953125 20.019531 L 0.457031 19.300781 L 14.136719 4.414062 L 11.867188 4.546875 L 1.988281 15.507812 L 1.988281 6.195312 L 2.917969 5.078125 L 0.632812 5.210938 L 0.632812 2.707031 L 8.640625 2.03125 L 4.238281 7.164062 L 4.238281 9.335938 L 10.773438 1.847656 L 21.253906 0.960938 L 5.894531 17.121094 L 7.917969 17.238281 L 19.074219 5.738281 L 19.074219 16.652344 L 17.828125 17.824219 L 20.996094 18.011719 Z M 20.996094 21.039062 "/>
</g>
</svg>
