<?xml version="1.0" standalone="no"?><!DOCTYPE svg PUBLIC "-//W3C//DTD SVG 1.1//EN" "http://www.w3.org/Graphics/SVG/1.1/DTD/svg11.dtd"><svg t="1610543409960" class="icon" viewBox="0 0 1024 1024" version="1.1" xmlns="http://www.w3.org/2000/svg" p-id="1543" xmlns:xlink="http://www.w3.org/1999/xlink" width="200" height="200"><defs><style type="text/css"></style></defs><path d="M878.8 300.2l-105.5 93.9c-11.6 10.3-30 2.1-30-13.5V277.3c0-30-24.3-54.3-54.3-54.3H178.6c-30 0-54.3 24.3-54.3 54.3v451.8c0 30 24.3 54.3 54.3 54.3H689c30 0 54.3-24.3 54.3-54.3V625.8c0-15.5 18.4-23.8 30-13.5l105.5 93.9c18.1 16.1 46.7 3.2 46.7-21v-364c0-24.2-28.6-37.1-46.7-21z" fill="#FF556E" p-id="1544"></path><path d="M124.3 649.4v79.8c0 30 24.3 54.3 54.3 54.3h44.5c-41.6-37.2-75.4-82.8-98.8-134.1zM178.6 223c-30 0-54.3 24.3-54.3 54.3v36.4c15-32.8 34.2-63.3 57-90.7h-2.7zM925.5 685.3V321.2c0-24.2-28.6-37.1-46.7-21l-16.9 15c22.9 50.7 35.6 107 35.6 166.3 0 71.2-18.4 138.1-50.7 196.3l32 28.4c18.1 16.1 46.7 3.3 46.7-20.9z" fill="#FF556E" p-id="1545"></path><path d="M612.5 783.4H689c30 0 54.3-24.3 54.3-54.3v-43.3c-35.1 42.1-79.8 75.8-130.8 97.6zM861.9 315.3L809.4 362c9.6 31.8 14.7 65.6 14.7 100.5 0 57.9-14.1 112.4-39 160.5l61.7 54.9c32.3-58.1 50.7-125 50.7-196.3 0-59.3-12.7-115.6-35.6-166.3zM125.9 462.4c0-92.7 36.1-176.9 95-239.4h-39.7c-22.8 27.4-42 57.9-57 90.7v335.6c23.4 51.3 57.3 96.9 98.8 134.1h114.4c-124.4-53.3-211.5-177-211.5-321z" fill="#FF5F71" p-id="1546"></path><path d="M809.4 361.9l-36.2 32.2c-9 8-22 4.9-27.4-4.1 3.2 17.3 4.9 35.1 4.9 53.4 0 162.1-131.4 293.4-293.4 293.4S163.8 605.4 163.8 443.3c0-87.8 38.5-166.5 99.6-220.3h-42.5c-58.9 62.5-95 146.7-95 239.4 0 144 87.2 267.6 211.6 321h275c51-21.9 95.7-55.6 130.8-97.6v-60c0-15.5 18.4-23.8 30-13.5l11.9 10.5c24.9-48 39-102.6 39-160.5-0.1-34.8-5.2-68.5-14.8-100.4z" fill="#FF6974" p-id="1547"></path><path d="M743.3 377.5V277.3c0-30-24.3-54.3-54.3-54.3h-37.9c45.3 39.9 78.2 93.6 92.2 154.5z" fill="#FF6974" p-id="1548"></path><path d="M163.8 443.3c0 162.1 131.4 293.4 293.4 293.4s293.4-131.4 293.4-293.4c0-18.2-1.7-36.1-4.9-53.4-1.6-2.6-2.6-5.8-2.6-9.3v-3.1c-14-60.9-46.9-114.6-92.2-154.5h-84.8c66.7 42.1 111 116.5 111 201.2 0 131.3-106.5 237.8-237.8 237.8S201.8 555.5 201.8 424.2c0-84.7 44.3-159.1 111-201.2h-49.4c-61 53.8-99.6 132.6-99.6 220.3z" fill="#FF7377" p-id="1549"></path><path d="M201.8 424.2c0 131.3 106.5 237.8 237.8 237.8s237.8-106.5 237.8-237.8c0-84.7-44.3-159.1-111-201.2H312.8c-66.7 42.1-111 116.5-111 201.2z m220-201.2c100.6 0 182.1 81.5 182.1 182.1s-81.5 182.1-182.1 182.1-182.1-81.5-182.1-182.1S321.2 223 421.8 223z" fill="#FF7E7A" p-id="1550"></path><path d="M421.8 587.2c100.6 0 182.1-81.5 182.1-182.1S522.4 223 421.8 223s-182.1 81.5-182.1 182.1 81.5 182.1 182.1 182.1z m-17.7-327.6c69.8 0 126.4 56.6 126.4 126.4s-56.6 126.4-126.4 126.4S277.7 455.8 277.7 386s56.6-126.4 126.4-126.4z" fill="#FF887D" p-id="1551"></path><path d="M404.1 386m-126.4 0a126.4 126.4 0 1 0 252.8 0 126.4 126.4 0 1 0-252.8 0Z" fill="#FF9280" p-id="1552"></path><path d="M379 613.2V384.7c0-25.6 29.4-40 49.6-24.3L576 474.6c15.9 12.3 15.9 36.3 0 48.7L428.7 637.5c-20.2 15.7-49.7 1.3-49.7-24.3z" fill="#FFC7C7" p-id="1553"></path><path d="M689 792.4H178.6c-34.9 0-63.3-28.4-63.3-63.3V277.3c0-34.9 28.4-63.3 63.3-63.3H689c34.9 0 63.3 28.4 63.3 63.3v103.3c0 5.4 4.1 7.7 5.3 8.2 1.3 0.6 5.7 2.1 9.7-1.5l105.5-93.9c11-9.8 26.3-12.2 39.8-6.1s21.9 19 21.9 33.8v364c0 14.8-8.4 27.8-21.9 33.8-13.5 6.1-28.7 3.7-39.8-6.1L767.3 619c-4-3.6-8.4-2-9.7-1.4s-5.4 2.8-5.4 8.2v103.3c0.1 34.9-28.3 63.3-63.2 63.3zM178.6 232c-25 0-45.3 20.3-45.3 45.3v451.8c0 25 20.3 45.3 45.3 45.3H689c25 0 45.3-20.3 45.3-45.3V625.8c0-10.8 6.1-20.2 16-24.6 9.8-4.4 21-2.7 29 4.4l105.5 93.9c5.8 5.1 13.4 6.3 20.4 3.1 7.1-3.2 11.3-9.7 11.3-17.4v-364c0-7.7-4.2-14.2-11.3-17.4-7-3.2-14.7-2-20.4 3.1l-105.5 93.9c-8.1 7.2-19.2 8.9-29 4.4-9.8-4.4-15.9-13.9-15.9-24.7V277.3c0-25-20.3-45.3-45.3-45.3H178.6z" fill="#EF4868" p-id="1554"></path><path d="M188.7 344.2c-9.9 0-18-8.1-18-18V314c0-26.3 21.4-47.7 47.7-47.7h93.1c9.9 0 18 8.1 18 18s-8.1 18-18 18h-93.1c-6.5 0-11.7 5.3-11.7 11.7v12.2c0 10-8.1 18-18 18zM188.7 413.8c-9.9 0-18-8.1-18-18v-10.5c0-9.9 8.1-18 18-18s18 8.1 18 18v10.5c0 10-8.1 18-18 18z" fill="#FFFFFF" p-id="1555"></path></svg>