<?xml version="1.0" standalone="no"?><!DOCTYPE svg PUBLIC "-//W3C//DTD SVG 1.1//EN" "http://www.w3.org/Graphics/SVG/1.1/DTD/svg11.dtd"><svg t="1610543565877" class="icon" viewBox="0 0 1024 1024" version="1.1" xmlns="http://www.w3.org/2000/svg" p-id="8041" xmlns:xlink="http://www.w3.org/1999/xlink" width="200" height="200"><defs><style type="text/css"></style></defs><path d="M512 512m-512 0a512 512 0 1 0 1024 0 512 512 0 1 0-1024 0Z" fill="#FFFFFF" p-id="8042"></path><path d="M667.512 705.496L425.392 412.464 296.416 541.448l293.032 242.112 14.136-14.144 10.184-10.184 12.448 12.448 30.544-30.552-12.448-12.44 23.2-23.2z" fill="#0072FF" p-id="8043"></path><path d="M590.008 802.224L274.92 542.576l151.04-151.04 260.216 314.52-22.624 22.632 12.44 12.44-50.344 50.352-12.448-12.448-23.192 23.2zM317.36 540.88l271.52 224.008 24.896-24.888 11.88 11.88 10.752-10.752-12.448-12.44 24.888-24.896-224.008-270.4L317.352 540.88z" fill="#333333" p-id="8044"></path><path d="M526.064 616.896l-25.456 25.456-49.784-49.784 25.456-25.456z" fill="#FFFFFF" p-id="8045"></path><path d="M405.100693 262.880391a180 182.4 45 1 0-257.952554 257.952553 180 182.4 45 1 0 257.952554-257.952553Z" fill="#D6F1FF" p-id="8046"></path><path d="M274.359477 587.267041C224.57916 587.267041 174.798843 568.033736 137.463604 530.698498 61.661758 454.896651 62.227443 331.011543 138.594975 254.644011 175.364528 217.874458 224.57916 196.944098 276.622219 196.944098c52.043059 0 101.257691 19.79899 138.027244 56.568542 75.801847 75.801847 75.236162 199.686955-1.131371 276.054487-38.466609 38.466609-88.812612 57.134228-139.158615 57.699914zM158.393965 274.443001c-65.619509 65.619509-66.185195 171.402684-1.131371 236.456507s170.836998 64.488138 236.456508-1.13137 66.185195-171.402684 1.131371-236.456508c-31.112698-31.112698-72.97342-48.083261-117.096883-48.083261l-1.131371 0c-44.123463 0-86.54987 17.536248-118.228254 49.214632z" fill="#333333" p-id="8047"></path><path d="M394.28 253.512c-70.704-60.528-177.624-56.568-245.504 11.312s-71.84 174.8-11.312 245.504L394.28 253.52z" fill="#FFFFFF" p-id="8048"></path><path d="M136.896 531.264l-10.184-11.312C61.656 442.448 66.752 326.48 138.592 254.64s188.376-77.496 265.304-11.88l11.32 10.184-278.32 278.32z m140.856-306.04c-42.992 0-86.552 16.4-119.36 49.216-57.696 57.704-65.616 149.344-19.232 214.96l234.192-234.192c-28.28-20.368-61.656-29.984-95.6-29.984z" fill="#333333" p-id="8049"></path><path d="M648.84 502.408c-49.776-52.04-54.304-128.976-9.616-173.664 45.256-45.256 123.888-40.16 175.928 11.88l140.856 140.856-20.368 20.368L794.8 360.992c-41.296-41.296-101.824-45.256-135.2-11.88s-29.416 93.904 11.88 135.2l118.792 118.792c51.472 51.48 57.136 130.672 11.88 175.928s-123.888 40.16-175.928-11.88l20.36-20.36c41.296 41.288 101.824 45.248 135.2 11.872s29.416-93.904-11.88-135.2L648.84 502.416z" fill="#333333" p-id="8050"></path></svg>