<?xml version="1.0" standalone="no"?><!DOCTYPE svg PUBLIC "-//W3C//DTD SVG 1.1//EN" "http://www.w3.org/Graphics/SVG/1.1/DTD/svg11.dtd"><svg t="1674546781794" class="icon" viewBox="0 0 1024 1024" version="1.1" xmlns="http://www.w3.org/2000/svg" p-id="827" xmlns:xlink="http://www.w3.org/1999/xlink" width="200" height="200"><path d="M929.408 172.330667c20.821333 0 33.962667 16.981333 28.458667 37.76l-134.186667 603.776c-4.693333 20.821333-25.045333 37.802667-45.866667 37.802666H94.634667c-20.778667 0-33.962667-16.981333-28.416-37.802666l134.144-603.733334c4.693333-20.821333 25.045333-37.802667 45.866666-37.802666h683.178667M674.645333 681.813333h-169.813333a35.498667 35.498667 0 0 0-35.285333 35.669334c0 19.925333 15.744 36.053333 35.242666 36.053333h169.856a36.053333 36.053333 0 0 0 36.096-36.053333 35.968 35.968 0 0 0-36.096-35.669334m-426.709333 11.861334a36.992 36.992 0 0 0-8.917333 51.797333 37.717333 37.717333 0 0 0 52.650666 9.813333c312.106667-219.562667 314.197333-222.08 316.330667-223.36a36.010667 36.010667 0 0 0 11.904-25.472 38.528 38.528 0 0 0-6.826667-23.808L404.181333 258.56a36.821333 36.821333 0 0 0-53.077333-1.28 37.034667 37.034667 0 0 0-2.133333 52.650667l176.213333 188.501333z" fill="#d4237a" p-id="828"></path></svg>