<?xml version="1.0" standalone="no"?><!DOCTYPE svg PUBLIC "-//W3C//DTD SVG 1.1//EN" "http://www.w3.org/Graphics/SVG/1.1/DTD/svg11.dtd"><svg t="1610543603440" class="icon" viewBox="0 0 1024 1024" version="1.1" xmlns="http://www.w3.org/2000/svg" p-id="10096" xmlns:xlink="http://www.w3.org/1999/xlink" width="200" height="200"><defs><style type="text/css"></style></defs><path d="M716.2 800.6H210.8c-18.2 0-33.1-14.8-33.1-33.1V436c0-18.2 14.8-33.1 33.1-33.1l2.5 0.2 433.4 72.6c2.6-0.2 8.5-0.8 13.7-1.3 52.3-5.4 67.2-4.8 75.9 3 2.7 2.5 4.5 5.5 5.3 8.9l2.7 7.5L848 435.2c8-4.5 18-4.5 26 0.2 7.8 4.5 12.4 12.5 12.4 21.3V754c0 8.8-4.6 16.8-12.4 21.4-8 4.7-18 4.7-26.1 0.2l-109.7-55.8v47.7c0.1 18.2-3.8 33.1-22 33.1zM210.1 433.1c-1.3 0.3-2.3 1.5-2.3 2.9v331.4c0 1.7 1.3 3 3 3h494.3c1.7 0 3-1.3 3-3V703c0-7.2 3.9-14 10.1-17.6 6.2-3.6 14-3.7 20.3-0.1l117.8 60.4V465l-108.8 61.5c-5.9 3.3-13.1 3.3-19-0.1-4.8-2.8-8-7.5-9.1-12.8l-4.6-12.6c-12.1-0.8-40 2.1-51.5 3.3-9.6 1-14.7 1.5-17.8 1.5l-2.5-0.2-432.9-72.5z" fill="#050505" p-id="10097"></path><path d="M312 263.9m-96.7 0a96.7 96.7 0 1 0 193.4 0 96.7 96.7 0 1 0-193.4 0Z" fill="#A53B24" p-id="10098"></path><path d="M502.9 275.7m-84.9 0a84.9 84.9 0 1 0 169.8 0 84.9 84.9 0 1 0-169.8 0Z" fill="#A53B24" p-id="10099"></path><path d="M573.3 556.6L806 690.9c7.7 4.4 17.2-1.1 17.2-9.9V412.3c0-8.8-9.6-14.4-17.2-9.9L573.3 536.7c-7.6 4.4-7.6 15.4 0 19.9z" fill="#7F291B" p-id="10100"></path><path d="M646.7 730.4H182c-21.2 0-38.4-17.2-38.4-38.4V404.1c0-22.7 18.4-41.2 41.2-41.2h458.5c23 0 41.7 18.7 41.7 41.7V692c0.1 21.2-17.1 38.4-38.3 38.4z" fill="#A53B24" p-id="10101"></path><path d="M685.1 447.9H143.7v-61.8c0-14.5 11.8-26.3 26.3-26.3h487.3c15.4 0 27.9 12.5 27.9 27.9v60.2z" fill="#EBD037" p-id="10102"></path></svg>