<?xml version="1.0" standalone="no"?><!DOCTYPE svg PUBLIC "-//W3C//DTD SVG 1.1//EN" "http://www.w3.org/Graphics/SVG/1.1/DTD/svg11.dtd"><svg t="1610543530693" class="icon" viewBox="0 0 1365 1024" version="1.1" xmlns="http://www.w3.org/2000/svg" p-id="7781" xmlns:xlink="http://www.w3.org/1999/xlink" width="266.6015625" height="200"><defs><style type="text/css"></style></defs><path d="M1251.555556 0a56.888889 56.888889 0 0 0-56.888889 56.888889 56.888889 56.888889 0 0 1-113.777778 0 56.888889 56.888889 0 0 0-113.777778 0 56.888889 56.888889 0 0 1-113.777778 0 56.888889 56.888889 0 0 0-113.777777 0 56.888889 56.888889 0 0 1-113.777778 0 56.888889 56.888889 0 0 0-113.777778 0 56.888889 56.888889 0 0 1-113.777778 0 56.888889 56.888889 0 0 0-113.777778 0 56.888889 56.888889 0 0 1-113.777777 0 56.888889 56.888889 0 0 0-56.888889-56.888889 113.777778 113.777778 0 0 0-113.777778 113.777778v796.444444a113.777778 113.777778 0 0 0 113.777778 113.777778 56.888889 56.888889 0 0 0 56.888889-56.888889 56.888889 56.888889 0 0 1 113.777777 0 56.888889 56.888889 0 0 0 113.777778 0 56.888889 56.888889 0 0 1 113.777778 0 56.888889 56.888889 0 0 0 113.777778 0 56.888889 56.888889 0 0 1 113.777778 0 56.888889 56.888889 0 0 0 113.777777 0 56.888889 56.888889 0 0 1 113.777778 0 56.888889 56.888889 0 0 0 113.777778 0 56.888889 56.888889 0 0 1 113.777778 0 56.888889 56.888889 0 0 0 56.888889 56.888889 113.777778 113.777778 0 0 0 113.777777-113.777778V113.777778a113.777778 113.777778 0 0 0-113.777777-113.777778z" fill="#F24922" p-id="7782"></path><path d="M477.297778 369.777778v363.52a56.888889 56.888889 0 0 0 87.04 48.355555L853.333333 600.177778a56.888889 56.888889 0 0 0 0-96.711111l-288.995555-182.044445a56.888889 56.888889 0 0 0-87.04 48.355556z" fill="#C6361E" p-id="7783"></path><path d="M512 329.955556v364.088888a56.888889 56.888889 0 0 0 87.04 48.355556l290.702222-182.044444a56.888889 56.888889 0 0 0 0-96.711112L599.04 284.444444A56.888889 56.888889 0 0 0 512 329.955556z" fill="#FFC229" p-id="7784"></path></svg>