<?xml version="1.0" standalone="no"?><!DOCTYPE svg PUBLIC "-//W3C//DTD SVG 1.1//EN" "http://www.w3.org/Graphics/SVG/1.1/DTD/svg11.dtd"><svg t="1738068844464" class="icon" viewBox="0 0 1699 1024" version="1.1" xmlns="http://www.w3.org/2000/svg" p-id="4222" xmlns:xlink="http://www.w3.org/1999/xlink" width="331.8359375" height="200"><path d="M1498.112 775.68c-8.704 0-18.432-1.024-30.208-2.56-34.304-5.632-52.224-23.04-59.392-58.368h32.768c11.264 0 20.48 0 29.184 0.512h2.56c10.752 0 18.432-2.56 23.552-8.192 5.632-5.632 7.68-13.824 7.68-24.576-0.512-12.8-0.512-25.6-0.512-38.4 0-12.288 0-24.576-0.512-36.864-1.024-27.136-17.92-44.544-43.52-45.056-16.384-0.512-33.792-0.512-55.808-0.512H1315.84v212.992h-75.264V563.2h-96.768V484.864h93.696V380.928h-62.464V304.64c6.144-0.512 12.288-0.512 18.944-1.024 10.752-0.512 22.528-1.024 34.816-1.536l9.728-0.512v-32.768h75.264c0 7.68 1.536 16.384 7.68 23.04 9.216 10.752 25.088 12.288 37.888 12.8 68.096 1.024 102.912 37.376 104.448 107.008 0.512 14.336 0 28.16 0 43.008v30.72l10.752-0.512h8.192c48.64 0 79.36 20.48 96.768 64.512v164.352c-20.992 46.08-43.008 61.952-81.408 61.952z m-182.272-389.12v23.552c0 18.432-0.512 34.304 1.024 50.176 1.024 10.752 15.36 23.552 26.624 23.552 4.608 0 41.984-0.512 43.52-16.896 2.048-20.48 4.096-47.616-3.584-71.68-3.584-10.752-16.384-12.8-34.816-15.36-6.656-1.024-13.824-2.048-19.968-3.584L1315.84 373.76v12.8zM311.808 775.168c-5.632 0-11.776-0.512-17.92-1.536-31.232-5.12-48.128-24.064-51.712-58.368h63.488V268.8h75.776V378.88c0 104.448 0 212.48-0.512 318.976-0.512 48.64-26.112 77.312-69.12 77.312z m-157.184-55.296c-16.896-29.184-32.256-56.832-48.128-84.48v-8.704c2.048-9.728 3.584-19.968 5.632-29.696 4.608-23.04 9.216-47.104 12.288-71.168 3.584-30.208 5.632-59.392 7.68-90.624 0.512-10.24 1.536-20.48 2.048-31.232h80.384c-3.584 29.184-5.632 59.392-7.168 88.064-4.096 80.896-8.192 157.184-52.736 227.84z m585.216-75.776c-20.48 0-41.984-0.512-63.488-2.56-5.632-0.512-13.312-2.56-16.896-8.704-3.072-5.12-3.072-12.8 0.512-22.016 8.192-19.968 17.408-39.424 26.112-58.88 4.096-8.704 8.192-16.896 11.776-25.6l22.016-48.128h-46.08c-5.632 0-10.752 0-15.872-0.512-17.408-0.512-28.16-4.096-32.256-10.752-4.608-7.68-0.512-20.992 4.096-31.232 18.432-40.448 38.4-80.896 57.856-119.808 7.68-15.872 15.872-31.744 23.552-47.104h73.216c-4.096 7.68-8.192 15.872-12.288 23.552-17.92 34.816-35.328 67.584-47.616 100.352l-5.632 14.848 15.872-1.024c33.792-2.048 64.512-3.584 99.328-5.632-11.264 22.528-53.76 108.544-53.76 108.544-1.536 2.56-2.56 5.632-4.096 8.192s-2.56 5.12-4.096 8.192c-12.288 25.088-17.92 36.352-11.776 46.592s18.432 10.752 46.08 11.264h2.56l-4.608 9.216c-8.704 16.896-16.384 32.768-25.088 48.128-0.512 1.024-2.048 2.048-3.072 2.56h-20.48c-4.608 0.512-10.24 0.512-15.872 0.512z m786.944-263.68c-6.144 0-12.8-0.512-20.48-1.536-5.632-28.16-6.144-61.44 18.432-72.704 5.12-2.56 10.24-3.584 14.848-3.584 12.8 0 26.112 8.704 40.96 26.112v23.552c-11.776 19.456-28.672 28.16-53.76 28.16zM803.328 776.192c2.048-4.096 3.584-7.68 5.632-11.264 10.752-22.016 21.504-43.008 32.768-62.464 1.024-0.512 5.12-2.048 16.384-2.048 9.216-0.512 18.944-0.512 31.744-0.512h52.736V380.928h-61.44V306.688h202.752v72.704h-60.928v320h55.296c12.288 0 22.016 0 31.232-0.512h1.024c7.168 0 9.216 0 9.728 11.776v1.024c2.048 31.232 3.072 51.712-2.56 57.856s-26.112 6.144-58.88 6.144h-255.488v0.512z m-204.8-0.512c13.824-27.648 26.112-51.2 36.864-72.704l2.56-5.12h131.072c-1.536 2.56-2.56 5.12-4.096 7.68-12.288 24.064-22.528 44.544-33.792 65.024-1.024 1.536-5.632 4.608-7.68 4.608-26.112 0.512-51.712 0.512-73.216 0.512h-51.712z m-69.632-58.368c-36.864-45.056-57.856-157.696-58.368-313.856h75.264c1.024 14.848 1.536 29.696 2.048 44.544 1.536 39.936 3.584 81.408 12.288 121.344 13.824 57.856-6.656 104.96-31.232 147.968z" fill="#FF0000" p-id="4223"></path></svg>