<?xml version="1.0" standalone="no"?><!DOCTYPE svg PUBLIC "-//W3C//DTD SVG 1.1//EN" "http://www.w3.org/Graphics/SVG/1.1/DTD/svg11.dtd"><svg t="1722951298277" class="icon" viewBox="0 0 1024 1024" version="1.1" xmlns="http://www.w3.org/2000/svg" p-id="4292" xmlns:xlink="http://www.w3.org/1999/xlink" width="200" height="200"><path d="M341.333333 917.333333a21.333333 21.333333 0 0 1-21.333333 21.333334H96a53.393333 53.393333 0 0 1-53.333333-53.333334v-44.5l227.126666-227.12a10.666667 10.666667 0 0 1 15.08 0L404.666667 733.5 242.166667 896H320a21.333333 21.333333 0 0 1 21.333333 21.333333z m0-597.333333a64 64 0 1 0-64 64 64.073333 64.073333 0 0 0 64-64zM239.62 583.54L42.666667 780.5V138.666667a53.393333 53.393333 0 0 1 53.333333-53.333334h480a21.333333 21.333333 0 0 1 19.08 30.873334L429.653333 447.066667l89.473334 149.126666a21.333333 21.333333 0 0 1-3.206667 26.06L434.833333 703.333333 315.046667 583.54a53.4 53.4 0 0 0-75.426667 0zM277.333333 426.666667c58.813333 0 106.666667-47.853333 106.666667-106.666667s-47.853333-106.666667-106.666667-106.666667-106.666667 47.853333-106.666666 106.666667 47.853333 106.666667 106.666666 106.666667z m650.666667-298.666667H661.333333a21.333333 21.333333 0 0 0-19.08 11.793333l-106.666666 213.333334a21.333333 21.333333 0 0 0 1.173333 21.133333L652.6 553.226667l55.686667-55.686667a53.4 53.4 0 0 1 75.426666 0L981.333333 695.166667V181.333333a53.393333 53.393333 0 0 0-53.333333-53.333333z m-182 396.586667a10.6 10.6 0 0 0-7.54 3.126666L581.933333 684.24l10.666667 17.74-203.653333 244.36A21.333333 21.333333 0 0 0 405.333333 981.333333h522.666667a53.393333 53.393333 0 0 0 53.333333-53.333333v-172.5l-227.793333-227.786667a10.6 10.6 0 0 0-7.54-3.126666z" fill="#515151" p-id="4293"></path></svg>